# xmcd CD database file generated by MAGIX_Freedb v0.9beta0
# 
# Track frame offsets:
#      150
#      21903
#      35370
#      50330
#      60790
#      72158
#      84865
#      95633
#      112593
#      125583
#      138453
#      148810
#      169225
#      181168
#      192870
#      205818
# 
# Disc length: 2899 seconds
# 
# Revision: 3 
# Processed by: cddbd v1.5.2PL0 Copyright (c) Steve Scherf et al.
# Submitted via: MAGIX_Freedb v0.9beta0
# 
DISCID=d50b5110
DTITLE=Jonny Hill - König der Landstrasse
DYEAR=1991
DGENRE=Country
TTITLE0=Jonny Hill - Ruf Teddybär eins-vier
TTITLE1=Ruby, machs mir doch nicht so schwer
TTITLE2=Unerfüllte Träume
TTITLE3=König der Landstrasse
TTITLE4=Ich fahr meine Tour
TTITLE5=Green Green Grass Of Home
TTITLE6=Adios Amigo
TTITLE7=Rosen für Mama
TTITLE8=Ich hab´dich heut nacht so sehr vermißt
TTITLE9=Es sind nur Erinnerungen
TTITLE10=Heut nacht da brauch´ich dich
TTITLE11=Der Feigling
TTITLE12=Mehr hinterm Lenkrad als zu Haus
TTITLE13=Ja, die Tür steht immer offen
TTITLE14=Mexican Joe
TTITLE15=O, warum nicht
EXTD=YEAR: 1991 ID3G: 2
EXTT0=
EXTT1=
EXTT2=
EXTT3=
EXTT4=
EXTT5=
EXTT6=
EXTT7=
EXTT8=
EXTT9=
EXTT10=
EXTT11=
EXTT12=
EXTT13=
EXTT14=
EXTT15=
PLAYORDER=
